<svg xmlns="http://www.w3.org/2000/svg" width="138" height="200" viewBox="11 3 40 58">
  <circle cx="44.00" cy="12.00" r="3.5" fill="#A3A3A3"/>
  <circle cx="33.65" cy="8.26" r="3.5" fill="#A3A3A3"/>
  <circle cx="23.10" cy="10.43" r="3.5" fill="#A3A3A3"/>
  <circle cx="20.38" cy="20.57" r="3.5" fill="#A3A3A3"/>
  <circle cx="27.46" cy="28.87" r="3.5" fill="#A3A3A3"/>
  <circle cx="36.56" cy="35.14" r="3.5" fill="#A3A3A3"/>
  <circle cx="43.62" cy="43.44" r="3.5" fill="#A3A3A3"/>
  <circle cx="40.89" cy="53.58" r="3.5" fill="#A3A3A3"/>
  <circle cx="30.34" cy="55.73" r="3.5" fill="#A3A3A3"/>
  <circle cx="20.00" cy="52.00" r="3.5" fill="#A3A3A3"/>
  <path d="M 44 12 C 34 6, 20 6, 20 18 C 20 30, 44 34, 44 46 C 44 58, 30 58, 20 52" fill="none" stroke="rgb(65,114,222)" stroke-width="8" stroke-linecap="round" stroke-dasharray="3.09 99.66" stroke-dashoffset="0.00"/>
  <path d="M 44 12 C 34 6, 20 6, 20 18 C 20 30, 44 34, 44 46 C 44 58, 30 58, 20 52" fill="none" stroke="rgb(62,117,219)" stroke-width="8" stroke-linecap="round" stroke-dasharray="3.09 99.66" stroke-dashoffset="-1.59"/>
  <path d="M 44 12 C 34 6, 20 6, 20 18 C 20 30, 44 34, 44 46 C 44 58, 30 58, 20 52" fill="none" stroke="rgb(59,120,216)" stroke-width="8" stroke-linecap="round" stroke-dasharray="3.09 99.66" stroke-dashoffset="-3.17"/>
  <path d="M 44 12 C 34 6, 20 6, 20 18 C 20 30, 44 34, 44 46 C 44 58, 30 58, 20 52" fill="none" stroke="rgb(56,123,214)" stroke-width="8" stroke-linecap="round" stroke-dasharray="3.09 99.66" stroke-dashoffset="-4.76"/>
  <path d="M 44 12 C 34 6, 20 6, 20 18 C 20 30, 44 34, 44 46 C 44 58, 30 58, 20 52" fill="none" stroke="rgb(54,126,211)" stroke-width="8" stroke-linecap="round" stroke-dasharray="3.09 99.66" stroke-dashoffset="-6.34"/>
  <path d="M 44 12 C 34 6, 20 6, 20 18 C 20 30, 44 34, 44 46 C 44 58, 30 58, 20 52" fill="none" stroke="rgb(51,129,209)" stroke-width="8" stroke-linecap="round" stroke-dasharray="3.09 99.66" stroke-dashoffset="-7.93"/>
  <path d="M 44 12 C 34 6, 20 6, 20 18 C 20 30, 44 34, 44 46 C 44 58, 30 58, 20 52" fill="none" stroke="rgb(48,132,206)" stroke-width="8" stroke-linecap="round" stroke-dasharray="3.09 99.66" stroke-dashoffset="-9.52"/>
  <path d="M 44 12 C 34 6, 20 6, 20 18 C 20 30, 44 34, 44 46 C 44 58, 30 58, 20 52" fill="none" stroke="rgb(45,135,203)" stroke-width="8" stroke-linecap="round" stroke-dasharray="3.09 99.66" stroke-dashoffset="-11.10"/>
  <path d="M 44 12 C 34 6, 20 6, 20 18 C 20 30, 44 34, 44 46 C 44 58, 30 58, 20 52" fill="none" stroke="rgb(43,137,201)" stroke-width="8" stroke-linecap="round" stroke-dasharray="3.09 99.66" stroke-dashoffset="-12.69"/>
  <path d="M 44 12 C 34 6, 20 6, 20 18 C 20 30, 44 34, 44 46 C 44 58, 30 58, 20 52" fill="none" stroke="rgb(40,140,198)" stroke-width="8" stroke-linecap="round" stroke-dasharray="3.09 99.66" stroke-dashoffset="-14.28"/>
  <path d="M 44 12 C 34 6, 20 6, 20 18 C 20 30, 44 34, 44 46 C 44 58, 30 58, 20 52" fill="none" stroke="rgb(37,143,195)" stroke-width="8" stroke-linecap="round" stroke-dasharray="3.09 99.66" stroke-dashoffset="-15.86"/>
  <path d="M 44 12 C 34 6, 20 6, 20 18 C 20 30, 44 34, 44 46 C 44 58, 30 58, 20 52" fill="none" stroke="rgb(34,146,193)" stroke-width="8" stroke-linecap="round" stroke-dasharray="3.09 99.66" stroke-dashoffset="-17.45"/>
  <path d="M 44 12 C 34 6, 20 6, 20 18 C 20 30, 44 34, 44 46 C 44 58, 30 58, 20 52" fill="none" stroke="rgb(32,149,190)" stroke-width="8" stroke-linecap="round" stroke-dasharray="3.09 99.66" stroke-dashoffset="-19.03"/>
  <path d="M 44 12 C 34 6, 20 6, 20 18 C 20 30, 44 34, 44 46 C 44 58, 30 58, 20 52" fill="none" stroke="rgb(29,152,188)" stroke-width="8" stroke-linecap="round" stroke-dasharray="3.09 99.66" stroke-dashoffset="-20.62"/>
  <path d="M 44 12 C 34 6, 20 6, 20 18 C 20 30, 44 34, 44 46 C 44 58, 30 58, 20 52" fill="none" stroke="rgb(26,155,185)" stroke-width="8" stroke-linecap="round" stroke-dasharray="3.09 99.66" stroke-dashoffset="-22.21"/>
  <path d="M 44 12 C 34 6, 20 6, 20 18 C 20 30, 44 34, 44 46 C 44 58, 30 58, 20 52" fill="none" stroke="rgb(23,158,182)" stroke-width="8" stroke-linecap="round" stroke-dasharray="3.09 99.66" stroke-dashoffset="-23.79"/>
  <path d="M 44 12 C 34 6, 20 6, 20 18 C 20 30, 44 34, 44 46 C 44 58, 30 58, 20 52" fill="none" stroke="rgb(21,160,180)" stroke-width="8" stroke-linecap="round" stroke-dasharray="3.09 99.66" stroke-dashoffset="-25.38"/>
  <path d="M 44 12 C 34 6, 20 6, 20 18 C 20 30, 44 34, 44 46 C 44 58, 30 58, 20 52" fill="none" stroke="rgb(18,163,177)" stroke-width="8" stroke-linecap="round" stroke-dasharray="3.09 99.66" stroke-dashoffset="-26.96"/>
  <path d="M 44 12 C 34 6, 20 6, 20 18 C 20 30, 44 34, 44 46 C 44 58, 30 58, 20 52" fill="none" stroke="rgb(15,166,174)" stroke-width="8" stroke-linecap="round" stroke-dasharray="3.09 99.66" stroke-dashoffset="-28.55"/>
  <path d="M 44 12 C 34 6, 20 6, 20 18 C 20 30, 44 34, 44 46 C 44 58, 30 58, 20 52" fill="none" stroke="rgb(12,169,172)" stroke-width="8" stroke-linecap="round" stroke-dasharray="3.09 99.66" stroke-dashoffset="-30.14"/>
  <path d="M 44 12 C 34 6, 20 6, 20 18 C 20 30, 44 34, 44 46 C 44 58, 30 58, 20 52" fill="none" stroke="rgb(10,172,169)" stroke-width="8" stroke-linecap="round" stroke-dasharray="3.09 99.66" stroke-dashoffset="-31.72"/>
  <path d="M 44 12 C 34 6, 20 6, 20 18 C 20 30, 44 34, 44 46 C 44 58, 30 58, 20 52" fill="none" stroke="rgb(7,175,167)" stroke-width="8" stroke-linecap="round" stroke-dasharray="3.09 99.66" stroke-dashoffset="-33.31"/>
  <path d="M 44 12 C 34 6, 20 6, 20 18 C 20 30, 44 34, 44 46 C 44 58, 30 58, 20 52" fill="none" stroke="rgb(4,178,164)" stroke-width="8" stroke-linecap="round" stroke-dasharray="3.09 99.66" stroke-dashoffset="-34.90"/>
  <path d="M 44 12 C 34 6, 20 6, 20 18 C 20 30, 44 34, 44 46 C 44 58, 30 58, 20 52" fill="none" stroke="rgb(1,181,161)" stroke-width="8" stroke-linecap="round" stroke-dasharray="3.09 99.66" stroke-dashoffset="-36.48"/>
  <path d="M 44 12 C 34 6, 20 6, 20 18 C 20 30, 44 34, 44 46 C 44 58, 30 58, 20 52" fill="none" stroke="rgb(5,181,157)" stroke-width="8" stroke-linecap="round" stroke-dasharray="3.09 99.66" stroke-dashoffset="-38.07"/>
  <path d="M 44 12 C 34 6, 20 6, 20 18 C 20 30, 44 34, 44 46 C 44 58, 30 58, 20 52" fill="none" stroke="rgb(14,180,150)" stroke-width="8" stroke-linecap="round" stroke-dasharray="3.09 99.66" stroke-dashoffset="-39.65"/>
  <path d="M 44 12 C 34 6, 20 6, 20 18 C 20 30, 44 34, 44 46 C 44 58, 30 58, 20 52" fill="none" stroke="rgb(23,178,143)" stroke-width="8" stroke-linecap="round" stroke-dasharray="3.09 99.66" stroke-dashoffset="-41.24"/>
  <path d="M 44 12 C 34 6, 20 6, 20 18 C 20 30, 44 34, 44 46 C 44 58, 30 58, 20 52" fill="none" stroke="rgb(33,176,137)" stroke-width="8" stroke-linecap="round" stroke-dasharray="3.09 99.66" stroke-dashoffset="-42.83"/>
  <path d="M 44 12 C 34 6, 20 6, 20 18 C 20 30, 44 34, 44 46 C 44 58, 30 58, 20 52" fill="none" stroke="rgb(42,175,130)" stroke-width="8" stroke-linecap="round" stroke-dasharray="3.09 99.66" stroke-dashoffset="-44.41"/>
  <path d="M 44 12 C 34 6, 20 6, 20 18 C 20 30, 44 34, 44 46 C 44 58, 30 58, 20 52" fill="none" stroke="rgb(52,173,123)" stroke-width="8" stroke-linecap="round" stroke-dasharray="3.09 99.66" stroke-dashoffset="-46.00"/>
  <path d="M 44 12 C 34 6, 20 6, 20 18 C 20 30, 44 34, 44 46 C 44 58, 30 58, 20 52" fill="none" stroke="rgb(61,172,117)" stroke-width="8" stroke-linecap="round" stroke-dasharray="3.09 99.66" stroke-dashoffset="-47.58"/>
  <path d="M 44 12 C 34 6, 20 6, 20 18 C 20 30, 44 34, 44 46 C 44 58, 30 58, 20 52" fill="none" stroke="rgb(70,170,110)" stroke-width="8" stroke-linecap="round" stroke-dasharray="3.09 99.66" stroke-dashoffset="-49.17"/>
  <path d="M 44 12 C 34 6, 20 6, 20 18 C 20 30, 44 34, 44 46 C 44 58, 30 58, 20 52" fill="none" stroke="rgb(80,169,103)" stroke-width="8" stroke-linecap="round" stroke-dasharray="3.09 99.66" stroke-dashoffset="-50.76"/>
  <path d="M 44 12 C 34 6, 20 6, 20 18 C 20 30, 44 34, 44 46 C 44 58, 30 58, 20 52" fill="none" stroke="rgb(89,167,97)" stroke-width="8" stroke-linecap="round" stroke-dasharray="3.09 99.66" stroke-dashoffset="-52.34"/>
  <path d="M 44 12 C 34 6, 20 6, 20 18 C 20 30, 44 34, 44 46 C 44 58, 30 58, 20 52" fill="none" stroke="rgb(98,165,90)" stroke-width="8" stroke-linecap="round" stroke-dasharray="3.09 99.66" stroke-dashoffset="-53.93"/>
  <path d="M 44 12 C 34 6, 20 6, 20 18 C 20 30, 44 34, 44 46 C 44 58, 30 58, 20 52" fill="none" stroke="rgb(108,164,83)" stroke-width="8" stroke-linecap="round" stroke-dasharray="3.09 99.66" stroke-dashoffset="-55.52"/>
  <path d="M 44 12 C 34 6, 20 6, 20 18 C 20 30, 44 34, 44 46 C 44 58, 30 58, 20 52" fill="none" stroke="rgb(117,162,77)" stroke-width="8" stroke-linecap="round" stroke-dasharray="3.09 99.66" stroke-dashoffset="-57.10"/>
  <path d="M 44 12 C 34 6, 20 6, 20 18 C 20 30, 44 34, 44 46 C 44 58, 30 58, 20 52" fill="none" stroke="rgb(127,161,70)" stroke-width="8" stroke-linecap="round" stroke-dasharray="3.09 99.66" stroke-dashoffset="-58.69"/>
  <path d="M 44 12 C 34 6, 20 6, 20 18 C 20 30, 44 34, 44 46 C 44 58, 30 58, 20 52" fill="none" stroke="rgb(136,159,63)" stroke-width="8" stroke-linecap="round" stroke-dasharray="3.09 99.66" stroke-dashoffset="-60.27"/>
  <path d="M 44 12 C 34 6, 20 6, 20 18 C 20 30, 44 34, 44 46 C 44 58, 30 58, 20 52" fill="none" stroke="rgb(145,157,57)" stroke-width="8" stroke-linecap="round" stroke-dasharray="3.09 99.66" stroke-dashoffset="-61.86"/>
  <path d="M 44 12 C 34 6, 20 6, 20 18 C 20 30, 44 34, 44 46 C 44 58, 30 58, 20 52" fill="none" stroke="rgb(155,156,50)" stroke-width="8" stroke-linecap="round" stroke-dasharray="3.09 99.66" stroke-dashoffset="-63.45"/>
  <path d="M 44 12 C 34 6, 20 6, 20 18 C 20 30, 44 34, 44 46 C 44 58, 30 58, 20 52" fill="none" stroke="rgb(164,154,43)" stroke-width="8" stroke-linecap="round" stroke-dasharray="3.09 99.66" stroke-dashoffset="-65.03"/>
  <path d="M 44 12 C 34 6, 20 6, 20 18 C 20 30, 44 34, 44 46 C 44 58, 30 58, 20 52" fill="none" stroke="rgb(173,153,37)" stroke-width="8" stroke-linecap="round" stroke-dasharray="3.09 99.66" stroke-dashoffset="-66.62"/>
  <path d="M 44 12 C 34 6, 20 6, 20 18 C 20 30, 44 34, 44 46 C 44 58, 30 58, 20 52" fill="none" stroke="rgb(183,151,30)" stroke-width="8" stroke-linecap="round" stroke-dasharray="3.09 99.66" stroke-dashoffset="-68.20"/>
  <path d="M 44 12 C 34 6, 20 6, 20 18 C 20 30, 44 34, 44 46 C 44 58, 30 58, 20 52" fill="none" stroke="rgb(192,150,23)" stroke-width="8" stroke-linecap="round" stroke-dasharray="3.09 99.66" stroke-dashoffset="-69.79"/>
  <path d="M 44 12 C 34 6, 20 6, 20 18 C 20 30, 44 34, 44 46 C 44 58, 30 58, 20 52" fill="none" stroke="rgb(202,148,17)" stroke-width="8" stroke-linecap="round" stroke-dasharray="3.09 99.66" stroke-dashoffset="-71.38"/>
  <path d="M 44 12 C 34 6, 20 6, 20 18 C 20 30, 44 34, 44 46 C 44 58, 30 58, 20 52" fill="none" stroke="rgb(211,146,10)" stroke-width="8" stroke-linecap="round" stroke-dasharray="3.09 99.66" stroke-dashoffset="-72.96"/>
  <path d="M 44 12 C 34 6, 20 6, 20 18 C 20 30, 44 34, 44 46 C 44 58, 30 58, 20 52" fill="none" stroke="rgb(220,145,3)" stroke-width="8" stroke-linecap="round" stroke-dasharray="3.09 99.66" stroke-dashoffset="-74.55"/>
</svg>